<?xml version="1.0" standalone="no"?>
<!DOCTYPE svg PUBLIC "-//W3C//DTD SVG 20010904//EN"
 "http://www.w3.org/TR/2001/REC-SVG-20010904/DTD/svg10.dtd">
<svg version="1.0" xmlns="http://www.w3.org/2000/svg"
 width="512.000000pt" height="512.000000pt" viewBox="0 0 512.000000 512.000000"
 preserveAspectRatio="xMidYMid meet">
<metadata>
Created by potrace 1.15, written by Peter Selinger 2001-2017
</metadata>
<g transform="translate(0.000000,512.000000) scale(0.100000,-0.100000)"
fill="#000000" stroke="none">
<path d="M1920 3309 c0 -1291 -2 -1520 -14 -1516 -90 35 -425 115 -611 146
-329 55 -600 51 -687 -11 -63 -44 -21 -146 99 -239 386 -301 1509 -731 2353
-903 271 -55 394 -70 605 -70 194 -1 201 0 250 24 79 40 85 92 20 170 -135
161 -558 386 -1149 609 l-28 11 113 86 c701 532 1102 1194 1195 1974 19 165
19 507 -1 674 -18 149 -54 337 -92 472 l-26 94 -209 0 c-196 0 -210 -1 -205
-17 85 -292 99 -361 118 -573 35 -406 -75 -900 -302 -1353 -56 -110 -160 -288
-212 -360 l-34 -48 -6 168 c-4 92 -12 413 -18 713 -7 300 -15 550 -18 556 -3
6 -163 -191 -356 -438 l-350 -448 -3 900 -2 900 -215 0 -215 0 0 -1521z m788
-1113 c-57 -755 -59 -802 -45 -860 17 -70 15 -79 -19 -95 -77 -35 -370 19
-565 103 -134 58 -299 177 -299 216 0 6 8 17 18 25 9 8 35 30 57 49 27 23 180
248 474 700 239 366 436 665 437 663 2 -1 -24 -362 -58 -801z m-1307 -376
c101 -10 328 -48 439 -74 l55 -13 -55 -31 c-91 -53 -170 -73 -319 -80 l-135
-7 85 -56 c306 -204 681 -351 1119 -439 170 -34 319 -53 375 -48 l40 3 -50 35
c-91 62 -180 163 -224 251 -42 84 -52 129 -27 129 28 0 324 -124 458 -191 276
-140 438 -269 438 -349 0 -33 -32 -63 -85 -81 -60 -21 -299 -15 -475 11 -428
63 -1008 226 -1407 396 -221 94 -485 237 -587 317 -87 69 -120 152 -76 192 47
43 215 56 431 35z"/>
<path d="M1170 1219 c0 -7 22 -33 48 -58 332 -319 438 -448 562 -689 49 -95
82 -123 150 -130 41 -4 62 2 151 43 253 117 587 195 830 195 55 0 107 19 87
32 -7 4 -37 8 -66 8 -172 0 -579 94 -917 210 -242 84 -519 212 -726 336 -59
35 -110 64 -113 64 -3 0 -6 -5 -6 -11z"/>
</g>
</svg>
